<svg id="visual" viewBox="0 0 900 600" width="900" height="600" xmlns="http://www.w3.org/2000/svg" xmlns:xlink="http://www.w3.org/1999/xlink" version="1.1"><rect x="0" y="0" width="900" height="600" fill="#b4b4b4"></rect><path d="M0 525L18.8 522.7C37.7 520.3 75.3 515.7 112.8 501.3C150.3 487 187.7 463 225.2 465.7C262.7 468.3 300.3 497.7 337.8 498.8C375.3 500 412.7 473 450.2 461C487.7 449 525.3 452 562.8 463.5C600.3 475 637.7 495 675.2 499.7C712.7 504.3 750.3 493.7 787.8 489C825.3 484.3 862.7 485.7 881.3 486.3L900 487L900 601L881.3 601C862.7 601 825.3 601 787.8 601C750.3 601 712.7 601 675.2 601C637.7 601 600.3 601 562.8 601C525.3 601 487.7 601 450.2 601C412.7 601 375.3 601 337.8 601C300.3 601 262.7 601 225.2 601C187.7 601 150.3 601 112.8 601C75.3 601 37.7 601 18.8 601L0 601Z" fill="#fc941c" stroke-linecap="round" stroke-linejoin="miter"></path></svg>